<svg width="1164" height="904" viewBox="0 0 1164 904" fill="none" xmlns="http://www.w3.org/2000/svg">
<path d="M325.031 347.729C416.8 336.856 498.438 284.295 546.32 205.256L555.761 189.673C589.859 133.388 641.518 89.8762 702.78 65.8413L761 43L778.387 38.6565C875.133 14.4872 977.566 39.9705 1051.71 106.654L1061.62 115.569C1121.66 169.563 1157.39 245.477 1160.75 326.151L1162.22 361.365C1163.4 389.797 1160.53 418.253 1153.7 445.877L1126.59 555.46C1110.74 619.541 1074.2 676.605 1022.62 717.808L958.431 769.09C889.503 824.157 799.83 846.093 713.266 829.062L557.144 798.346C514.808 790.017 471.174 790.918 429.219 800.987L317.273 827.854C160.209 865.55 11.8178 739.666 23.4037 578.558V578.558C31.6169 464.349 119.751 372.051 233.459 358.579L325.031 347.729Z" fill="#F2F2F2"/>
<rect x="227" y="641" width="661" height="21" fill="white"/>
<rect x="225" y="335" width="663" height="309" fill="white"/>
<rect x="229" y="267" width="658" height="68" fill="#3C50A6"/>
<path d="M242.5 264.5H873.5C882.613 264.5 890 271.887 890 281V649C890 658.113 882.613 665.5 873.5 665.5H242.5C233.387 665.5 226 658.113 226 649V281C226 271.887 233.387 264.5 242.5 264.5Z" stroke="#2F2D42" stroke-width="7"/>
<path d="M225.5 338H888.5" stroke="#2F2D42" stroke-width="7"/>
<circle cx="272" cy="301" r="16.5" fill="white" stroke="#2F2D42" stroke-width="7"/>
<circle cx="330" cy="301" r="16.5" fill="white" stroke="#2F2D42" stroke-width="7"/>
<circle cx="388" cy="301" r="16.5" fill="white" stroke="#2F2D42" stroke-width="7"/>
<path d="M461.6 557.4C459.067 557.4 457.067 556.667 455.6 555.2C454.133 553.733 453.4 551.667 453.4 549V525.8H396C393.333 525.8 391.2 525.2 389.6 524C388.133 522.667 387.4 520.8 387.4 518.4C387.4 516.933 387.733 515.467 388.4 514C389.067 512.4 390.267 510.4 392 508L453 419.2C454.2 417.333 455.533 415.933 457 415C458.467 414.067 460.2 413.6 462.2 413.6C464.333 413.6 466.133 414.267 467.6 415.6C469.2 416.933 470 419.067 470 422V511.8H484.6C487.133 511.8 489.067 512.4 490.4 513.6C491.733 514.8 492.4 516.533 492.4 518.8C492.4 521.067 491.733 522.8 490.4 524C489.067 525.2 487.133 525.8 484.6 525.8H470V549C470 551.667 469.267 553.733 467.8 555.2C466.333 556.667 464.267 557.4 461.6 557.4ZM453.4 511.8V434.2H458.2L402.2 516.2V511.8H453.4ZM557.922 557.8C541.789 557.8 529.522 551.6 521.122 539.2C512.722 526.8 508.522 508.867 508.522 485.4C508.522 469.667 510.389 456.467 514.122 445.8C517.855 435 523.389 426.867 530.722 421.4C538.189 415.933 547.255 413.2 557.922 413.2C574.189 413.2 586.455 419.333 594.722 431.6C603.122 443.733 607.322 461.6 607.322 485.2C607.322 500.933 605.455 514.2 601.722 525C597.989 535.8 592.455 544 585.122 549.6C577.789 555.067 568.722 557.8 557.922 557.8ZM557.922 543.6C569.122 543.6 577.389 538.867 582.722 529.4C588.189 519.8 590.922 505.067 590.922 485.2C590.922 465.2 588.189 450.6 582.722 441.4C577.389 432.067 569.122 427.4 557.922 427.4C546.855 427.4 538.589 432.067 533.122 441.4C527.655 450.733 524.922 465.333 524.922 485.2C524.922 505.067 527.655 519.8 533.122 529.4C538.589 538.867 546.855 543.6 557.922 543.6ZM648.844 556C646.444 556 644.577 555.4 643.244 554.2C641.91 552.867 641.244 551.067 641.244 548.8C641.244 546.533 641.91 544.867 643.244 543.8C644.577 542.6 646.444 542 648.844 542H674.844V428.6H683.444L654.444 447.8C652.71 448.733 651.044 449.133 649.444 449C647.977 448.867 646.71 448.333 645.644 447.4C644.71 446.333 644.044 445.133 643.644 443.8C643.244 442.333 643.31 440.867 643.844 439.4C644.377 437.8 645.51 436.467 647.244 435.4L674.844 417.2C676.577 416.133 678.244 415.267 679.844 414.6C681.444 413.933 683.044 413.6 684.644 413.6C686.51 413.6 688.044 414.2 689.244 415.4C690.577 416.467 691.244 418.2 691.244 420.6V542H715.244C717.644 542 719.51 542.6 720.844 543.8C722.177 544.867 722.844 546.533 722.844 548.8C722.844 551.2 722.177 553 720.844 554.2C719.51 555.4 717.644 556 715.244 556H648.844Z" fill="#2F2D42"/>
</svg>
