<svg id="Ebene_1" data-name="Ebene 1" xmlns="http://www.w3.org/2000/svg" viewBox="0 0 123.01 135.35"><defs><style>.cls-2{stroke:#fff;stroke-miterlimit:10;fill:#022f51}</style></defs><path d="M18 109.9h28.78V74.43c0-7.77 2.2-14.87 7.26-20.82 8.77-10.31 20-14.25 33.09-10.81s21 12.41 23.55 25.79a35.91 35.91 0 01.52 6.64v34.64H140V74.41c0-30.41-21.1-55.53-51-60.72-31-5.38-61.9 15-69.17 45.55A66.46 66.46 0 0018 74.63v33.44zm64.76 22.87l23-12.2.19.29c-9.22 7.8-18.43 15.61-27.76 23.52L73 131l-21 7.17-.16-.25 23.69-19z" transform="translate(-17.5 -12.32)" fill="#d82034" stroke="#fff" stroke-miterlimit="10"/><path class="cls-2" d="M106 77H51.83v32.82h8.61v8.08l12.49-8.08H106zM58.59 93.15a4.66 4.66 0 114.69 4.72 4.72 4.72 0 01-4.69-4.72zm19.7 4.72a4.7 4.7 0 01-4.62-4.78 4.66 4.66 0 019.31.08 4.7 4.7 0 01-4.69 4.7zm15.18 0a4.67 4.67 0 01-4.72-4.67 4.59 4.59 0 014.57-4.63 4.64 4.64 0 014.74 4.63 4.73 4.73 0 01-4.59 4.67z" transform="translate(-17.5 -12.32)"/><path class="cls-2" d="M94.26 102.03h28.25v32.82H94.26zm-93.76 0h28.25v32.82H.5z"/></svg>